Patient4_TMGait_0pt5_01_left_35_EMG.mot
version=1
nRows=40
nColumns=33
inDegrees=no
endheader
time	1LAddLong	2LGlutMax	3LGlutMed	4LIliopsoas	5LSemiMemb	6LBicFemLong	7LRecFem	8LVastMed	9LVastLat	10LGasMed	11LTibAnt	12lTibPost	13LPeroneusLong	14LSol	15LExtDigLong	16LFlexDigLong	17RAddLong	18RGlutMax	19RGlutMed	20RIliopsoas	21RSemiMemb	22RBicFemLong	23RRecFem	24RVastMed	25RVastLat	26RGasMed	27RTibAnt	28RTibPost	29RPeroneusLong	30RSol	31RExtDigLong	32RFlexDigLong
47.08	0.014801	0.12894	-0.31937	0.028229	0.16724	-0.13351	0.12238	-0.078125	0.23315	0.18158	-0.018463	-0.001984	-0.090332	-0.023499	-0.013885	0.11948	-0.050964	-0.21469	-0.29388	-0.16144	0.005035	0.16068	0.35049	-0.063782	0.015717	0.01297	0.37415	-0.00412	-0.089569	-0.53406	-0.001678	-0.015259
47.081	-0.006409	0.21133	-0.23621	0.006866	0.13473	-0.056458	0.24414	-0.053558	-0.062866	0.19836	0.01297	0.003357	-0.046997	0.009308	-0.009308	-0.36545	-0.020599	-0.15717	-0.26154	-0.11704	-0.040894	-0.12833	0.3096	-0.060425	0.027771	0.027313	0.81696	-0.000763	0.18723	-0.58029	-0.00473	-0.009766
47.082	0.000458	0.32623	-0.22385	0.0177	0.052032	-0.011292	0.25681	-0.037994	-0.36468	0.2945	0.028381	0.001984	0.011902	-0.057068	-0.013123	0.3183	0.007477	-0.14465	-0.28824	0.002136	0.075073	-0.16174	0.3096	-0.042877	0.013733	0.025024	0.73517	-0.000916	0.34424	-0.46478	-0.000916	-0.004272
47.083	0.007629	0.35568	-0.24048	0.013428	-0.002899	-0.12634	0.14023	-0.029449	-0.52689	0.46051	-0.014954	0.00061	0.057373	-0.086975	0.033112	0.22354	0.09613	-0.11429	-0.39139	0.12802	0.034485	-0.069885	0.30762	-0.034332	-0.015106	0.000305	0.051117	-0.002289	0.27359	-0.093231	0.002594	-0.004883
47.084	0.014648	0.40894	0.042114	0.025177	-0.020142	-0.20798	-0.005798	-0.012665	-0.46448	-0.096283	-0.026093	-0.000153	0.10529	-0.11414	0.041809	0.27878	0.096588	-0.11261	-0.35034	0.12558	0.024872	0.003662	0.30487	-0.008545	-0.00824	-0.007019	-0.67535	-0.00412	0.21835	0.17395	-0.000916	-0.003357
47.085	0.018921	0.39459	0.46066	0.029602	0.043335	-0.16571	-0.079346	-0.008087	-0.29633	-0.63767	-0.066071	0.008545	0.15442	-0.15259	0.034027	-0.11459	0.1181	-0.11597	-0.2124	0.10895	0.002289	0.058899	0.27985	-0.051117	-0.033569	-0.004578	-0.72891	-0.003967	0.21576	0.27817	0.006561	-0.004578
47.086	0.036469	0.38467	0.53146	0.024719	0.10834	-0.083313	-0.17685	-0.005035	-0.10483	-0.32974	-0.090942	0.014648	0.13886	-0.14618	0.027313	-0.001373	0.1358	-0.14893	-0.17532	0.10162	-0.073242	0.01297	0.20004	-0.023499	-0.018158	0.00061	-0.73425	0.000153	0.20233	0.31281	-0.001984	-0.002289
47.087	0.040894	0.43304	0.18967	0.018463	0.10712	0.001526	-0.13428	-0.012054	0.016327	-0.10712	-0.093079	0.011902	0.12497	-0.084076	0.003662	0.070496	0.1207	-0.24109	-0.30197	0.1384	-0.08728	-0.12619	0.17822	-0.031586	-0.000458	-0.003662	-0.49088	0.005035	0.14114	0.39459	0	-0.00412
47.088	0.024567	0.4306	0.007172	0.005188	0.06073	-0.079803	-0.10651	0.000763	-0.030518	-0.022583	-0.12711	0.012817	0.11963	-0.02533	-0.009766	0.001984	0.06485	-0.26566	-0.36423	0.11307	-0.063324	-0.19348	0.17349	-0.019379	0.006409	-0.004883	-0.24689	0.003662	0.053558	0.44449	0	-0.000458
47.089	0.02243	0.37064	-0.031586	0.015869	0.031433	-0.25604	-0.09552	0.013733	-0.046844	0.061188	-0.004425	0.018158	0.025177	0.010529	-0.037231	0.005493	0.018921	-0.21164	-0.22003	-0.02655	-0.073547	-0.18906	0.13886	-0.037842	0.029297	-0.007935	-0.084229	0.000763	0.041199	0.36179	0.011292	-0.012665
47.09	0.020752	0.31281	0.029297	0.03006	-0.003204	-0.27557	-0.14084	0.025635	-0.077515	0.070496	0.11429	0.010223	-0.030212	-0.026703	-0.069733	-0.006104	-0.020599	-0.27206	-0.2478	-0.14282	-0.085144	-0.12756	0.12833	0.00351	0.036316	-0.000916	0.008545	-0.000153	0.017242	0.28214	0.000916	-0.009003
47.091	0.017242	0.19959	0.034943	-0.001678	-0.011444	-0.035858	-0.1918	0.023804	-0.1828	0.087891	0.26016	0.010529	-0.056915	-0.03479	0.89218	-0.020599	0.003357	-0.32349	-0.33127	-0.20432	0.005341	-0.090027	0.094604	-0.014191	0.062714	0.000458	0.085449	-0.000153	0.069122	0.26779	-0.00061	-0.00946
47.092	0.012207	0.18204	0.11856	-0.009155	-0.00412	0.19959	-0.32806	0.01358	-0.19196	0.069275	0.37491	-0.001221	0.011292	-0.016479	0.59433	-0.011749	0.011902	-0.2385	-0.26977	-0.15442	0.050201	-0.082397	0.11215	-0.050964	0.06958	0.003204	0.15396	0.00351	0.14496	0.20004	-0.000916	-0.008698
47.093	0.002899	0.21988	-0.016632	0.007324	-0.010376	0.35721	-0.40161	0.002441	-0.09964	0.006866	0.27466	-0.006256	0.078125	0.04303	-0.029907	-0.004578	0.03418	-0.34073	-0.28	-0.028076	0.037079	-0.046387	0.1503	-0.045166	0.068817	0.006256	0.10132	-0.002899	0.11566	0.10071	-0.003204	-0.008698
47.094	-0.010223	0.2301	-0.10635	0.009155	0.006866	0.47638	-0.35996	-0.016327	-0.029907	-0.037384	-0.073853	0.000153	0.099182	0.10315	0.29327	-0.005646	0.063782	-0.32196	-0.2977	0.010376	0.02655	0.15472	0.18997	-0.074158	0.068817	0.002289	-0.024109	-0.000305	0.10819	0.045624	-0.002594	-0.010529
47.095	-0.035858	0.27008	-0.18433	0.012512	-0.053711	0.50323	-0.2829	-0.002441	-0.097656	0.01709	-0.22278	-0.006409	0.092163	0.14816	0.34805	-0.011749	0.081329	-0.39993	-0.26611	0.093231	0.059509	0.23071	0.18692	-0.005951	0.073853	-0.000916	0.071869	-0.003204	-0.02182	0.04303	0.000305	-0.006561
47.096	-0.056915	0.3093	-0.1683	0.027924	-0.13748	0.64011	-0.32623	0.008698	-0.058746	0.037842	-0.11414	-0.004272	0.059052	0.16251	-0.29602	0.001831	0.10025	-0.30289	-0.1976	0.041504	0.10254	0.26062	0.15076	0.019836	0.080261	-0.002899	-0.25101	-0.001221	0.00885	-0.028381	-0.003052	-0.013123
47.097	-0.074768	0.17685	0.11185	0.006104	-0.23132	0.68268	-0.36835	0.00885	0.13687	0.040894	0.089722	0.001221	0.075836	0.18631	0.35111	-0.004883	0.055847	-0.32059	-0.083313	0.025635	0.16998	0.22675	0.17807	-0.007477	0.061493	-0.001831	-0.2536	-0.002289	-0.012817	-0.003052	-0.005493	-0.015259
47.098	-0.062714	0.074921	-0.1207	-0.002594	-0.2417	0.38361	-0.30228	0.010834	0.22675	0.037689	0.22232	0	0.12238	0.21912	0.1564	-0.004883	-0.091858	-0.34439	-0.055084	0.12741	0.10056	0.25543	0.1181	-0.023346	0.048828	-0.001984	0.055847	-0.002594	-0.11276	0.011139	-0.002441	-0.010986
47.099	-0.028992	0.025024	-0.21469	0.025024	-0.23132	0.24399	-0.26428	-0.00061	0.21942	0.022888	0.14999	-0.005646	0.1503	0.22507	-0.69275	0.009766	-0.18021	-0.39871	-0.12985	0.2565	0.038757	0.25742	0.1329	-0.021057	0.022125	-0.01358	0.3952	-0.004425	-0.2829	-0.00946	-0.003815	-0.006256
47.1	0.018005	0.074158	-0.10513	0.018158	0.006409	-0.024109	-0.28442	-0.008545	0.28641	-0.010071	0.077362	-0.006561	0.18021	0.15427	-0.24704	0.009613	-0.16022	-0.3569	-0.2507	0.22629	0.010376	0.13504	0.032043	-0.003204	0.039978	-0.011902	0.82932	-0.002136	-0.25513	-0.00351	-0.007019	-0.011749
47.101	0.001984	0.079498	0.13382	0.002747	0.18692	-0.48401	-0.26413	-0.024414	0.41367	-0.059204	-0.11002	-0.000458	0.22919	0.062561	-0.112	0.008698	-0.15533	-0.3215	-0.081482	0.20706	-0.001526	0.11597	0.045013	0.002136	0.032501	-0.004883	1.0761	-0.001373	-0.29266	-0.11673	-0.00412	-0.00351
47.102	0.018463	0.061035	0.13565	0.003204	0.16052	-0.41641	-0.22842	-0.008087	0.40466	-0.11704	-0.2565	0.002289	0.31036	0.11643	-0.70831	0.011749	-0.159	-0.32989	0.014191	0.072937	-0.015869	0.095367	0.11505	-0.063934	0.007782	0.001831	0.88501	-0.002136	-0.17716	-0.19775	0.002747	-0.005798
47.103	0.016785	-0.058746	-0.012512	0.003815	0.15015	-0.32501	-0.15503	0.018921	0.21744	-0.12146	-0.36423	-0.000305	0.31189	-0.037384	-1.0283	-0.003815	-0.12695	-0.34576	0.077515	0.016327	-0.025482	0.045776	0.12711	-0.079803	-0.019531	0.002899	0.7428	-0.002594	0.042267	-0.18448	-0.003662	-0.004883
47.104	0.016937	-0.11261	-0.11322	0.005951	0.11292	-0.32974	-0.13641	0.017242	-0.10727	-0.066071	-0.33493	-0.003815	0.2446	-0.23315	-1.2775	0.010223	-0.05188	-0.39414	-0.079498	-0.017242	-0.029297	-0.016937	0.11902	-0.13397	-0.032196	0.007019	-0.47394	-0.000305	0.19043	-0.16113	-0.00351	0.004272
47.105	-0.003662	-0.15488	-0.20096	-0.002136	0.066071	-0.24506	-0.16937	0.010223	-0.25452	-0.035095	-0.168	-0.005798	0.10132	-0.22888	-0.70618	0.011444	0.047913	-0.26642	0.037079	-0.043335	-0.036926	-0.088043	0.11505	-0.16617	-0.037689	0.003204	-1.7294	-0.000916	0.15213	-0.11993	-0.00061	0.006866
47.106	-0.003815	-0.12207	-0.20264	0.02182	0.12772	-0.43549	-0.18753	-0.000763	-0.16083	-0.006104	-0.048523	0.001526	0.074615	-0.23331	-0.22781	-0.021362	0.12009	-0.2739	0.095062	-0.09079	-0.028839	-0.11704	0.066223	-0.16281	-0.037231	0.008698	-1.6293	-0.005035	0.11353	-0.1326	-0.005798	-0.000153
47.107	0.018921	-0.060577	-0.17456	0.019531	0.14725	-0.53055	-0.24063	0.001984	-0.079956	0.030975	0.005798	0.000458	0.08606	-0.21668	0.02655	-0.032806	0.13306	-0.2713	0.007935	-0.21301	-0.070343	-0.11993	0.037231	-0.12009	-0.026855	0.012665	-0.58075	-0.003662	0.30823	-0.14374	-0.002594	-0.002136
47.108	-0.059662	-0.02655	-0.00946	0.014343	0.085907	-0.54947	-0.23438	-0.003815	-0.16327	0.018005	-0.017548	0.001221	0.13992	-0.23102	0.15045	-0.023651	0.15884	-0.32806	0.022736	-0.22018	-0.083466	-0.074463	0.053711	-0.13092	-0.037079	0.008392	0.41992	-0.00351	0.30685	-0.025024	-0.002136	-0.003052
47.109	-0.071259	0.023193	0.1001	0.019989	0.032654	-0.2945	-0.20401	0.003052	-0.34958	0.026245	-0.03952	0.004578	0.15961	-0.32974	0.24506	-0.005341	0.23117	-0.25909	0.13306	-0.089722	-0.10834	-0.064697	0.075226	-0.14847	-0.025635	-0.002899	0.60211	-0.007172	0.098877	0.044556	-0.002899	-0.011902
47.11	-0.014191	-0.031281	0.10162	0.010834	-0.018921	-0.037384	-0.1622	0.030518	-0.21332	0.038757	-0.022888	0.009003	0.10117	-0.34851	0.31174	0.011444	0.23102	-0.26581	0.13931	0.059052	-0.12924	-0.006714	0.060272	-0.15854	-0.00824	0.00061	0.30655	-0.003204	-0.028534	0.12436	-0.011902	-0.014038
47.111	-0.014954	-0.080414	-0.027313	-0.017548	-0.055084	0.07843	-0.09552	0.02594	0.02655	0.028229	-0.00061	0.002136	-0.003357	-0.37781	0.29404	0.002747	0.21484	-0.3418	-0.03067	0.13397	-0.21042	0.041809	0.059204	-0.12497	0.027313	-0.00885	-0.33722	-0.003967	0.050201	0.050507	-0.006561	-0.005951
47.112	0.003204	-0.15198	-0.011444	0.00351	-0.061493	0.076294	-0.063934	-0.00824	0.10101	0.027161	-0.013123	0.000458	-0.009155	-0.47241	0.25971	-0.033569	0.12817	-0.3949	-0.004578	0.080261	-0.24292	0.095367	0.12558	-0.12375	0.013733	-0.009308	-0.4631	-0.00473	-0.002289	0.10391	-0.004578	-0.003052
47.113	-0.011139	-0.18982	-0.049286	0.009308	-0.037384	0.049133	0.010986	-0.015106	-0.10468	0.081482	-0.025024	0.007019	0.045776	-0.40802	0.24353	-0.027771	0.016632	-0.40802	0.027771	-0.072937	-0.22446	0.12528	0.1297	-0.08667	0.049591	-0.011444	-0.33173	-0.001526	-0.11734	0.087433	-0.004272	-0.002289
47.114	-0.016785	-0.22171	-0.05188	0.0177	-0.010529	-0.010681	-0.00351	-0.014038	-0.25696	0.17075	-0.00946	0.009918	0.037079	-0.24719	0.24384	0.005035	-0.093994	-0.37903	0.03952	-0.1976	-0.13504	0.051575	0.07843	-0.038147	0.043488	-0.000763	-0.26032	0.000458	0.049133	-0.06073	-0.009766	-0.002747
47.115	-0.019226	-0.25894	0.021667	0.013275	-0.0177	0.002136	-0.019073	-0.007019	-0.33264	0.069427	0.026245	0.016479	0.024872	-0.23346	0.23163	0.037079	-0.094299	-0.36407	0.079041	-0.16434	0.077209	-0.062256	0.049286	0.018311	0.068207	0.00885	0.050812	0.000763	0.22797	-0.12421	-0.009003	-0.000458
47.116	-0.032043	-0.24735	0.068359	0.02243	-0.092773	0.13306	-0.12238	0.009155	-0.15823	0.03891	0.11993	0.024872	-0.007019	-0.16403	0.22186	0.023041	-0.026093	-0.38269	0.14053	-0.10956	0.18249	-0.046539	0.16769	-0.048065	0.059357	0.007782	-0.070953	-0.001221	0.11047	-0.093231	-0.009308	0.007172
47.117	-0.02655	-0.24857	0.10742	0.009613	-0.13214	0.12543	-0.18875	0.023651	0.009918	0.057678	0.18112	0.019836	-0.019226	-0.15533	0.21698	0.013123	-0.050354	-0.44067	0.20508	-0.018768	0.21606	-0.000305	0.15595	0.030518	0.069427	0.003662	0.070038	-0.003052	-0.065155	-0.1033	-0.006561	0.001221
47.118	-0.023193	-0.12192	-0.003662	0.005341	-0.06546	0.24994	-0.14786	0.010681	0.12207	0.094299	0.16068	0.015411	-0.021515	-0.090485	0.24109	-0.003967	-0.06012	-0.44876	0.19226	0.056305	0.13748	0.049744	0.16876	0.045929	0.052948	-0.005798	0.067444	-0.002289	-0.15518	-0.086517	-0.010223	-0.004883
47.119	-0.019836	-0.19974	-0.11917	0.00061	0.006104	0.13626	-0.029449	-0.006409	0.16953	0.11002	0.22492	-0.001831	-0.065613	-0.10132	0.23407	0.008087	-0.054474	-0.49469	0.21255	-0.018921	0.18829	0.18539	0.16708	0.15533	0.045319	-0.001984	-0.18951	-0.008392	-0.006561	0.041351	-0.013428	0.001526
